# xmcd CD database file
#
# Track frame offsets:
#	150
#	17619
#	34035
#	59034
#	74655
#	90742
#	103395
#	124380
#	139533
#	152065
#	165057
#	175645
#
# Disc length: 2498 seconds
#
# Revision: 0
# Processed by: cddbd v1.4PL0 Copyright (c) Steve Scherf et al.
# Submitted via: CDex 1.50beta10
#
DISCID=9f09c00c
DTITLE=Jessie Mae Hemphill - Heritage Of The Blues (Shake It Baby)
DYEAR=2003
DGENRE=Blues
TTITLE0=Feelin' Good
TTITLE1=Go Back To Your Used To Be
TTITLE2=Streamline Train
TTITLE3=All Night Boogie (Jessie's Boogie)
TTITLE4=Shame On You
TTITLE5=Lord, Help The Poor And Needy
TTITLE6=Standing In My Doorway Crying
TTITLE7=Shake It, Baby
TTITLE8=Take Me Home With You, Baby
TTITLE9=Hard Times
TTITLE10=Bullyin' Well
TTITLE11=Baby, Please Don't Go
EXTD=YEAR: 2003
EXTT0=
EXTT1=
EXTT2=
EXTT3=
EXTT4=
EXTT5=
EXTT6=
EXTT7=
EXTT8=
EXTT9=
EXTT10=
EXTT11=
PLAYORDER=
